<?xml version="1.0" encoding="utf-8"?>
<!-- Generator: Adobe Illustrator 23.1.1, SVG Export Plug-In . SVG Version: 6.00 Build 0)  -->
<svg version="1.1" xmlns="http://www.w3.org/2000/svg" xmlns:xlink="http://www.w3.org/1999/xlink" x="0px" y="0px"
	 viewBox="0 0 613.8 612.3" style="enable-background:new 0 0 613.8 612.3;" xml:space="preserve">
<style type="text/css">
	.st0{fill:#231F20;}
	.st1{font-family:'MyriadPro-Regular';}
	.st2{font-size:602.89px;}
	.st3{fill:#666666;}
	.st4{fill:#F7942D;}
	.st5{fill:#FF692D;}
	.st6{fill:#FFBC2D;}
</style>
<g id="Layer_1">
	<title>logo_adam_1</title>
	<text transform="matrix(1 0 0 1 141.1458 598.1675)" class="st0 st1 st2">A</text>
	<g>
		<path d="M404.2,172.6c-1-0.7-2.2-1.3-4-2.3c6,12.6,1.5,22.1-6.8,30.4s-17.9,12.6-29.5,11.1c7-3.2,14.1-5.9,20.6-9.6
			c6.5-3.7,11.2-9.8,13.1-17c2.5-8.9-2.7-16.6-11.9-17.5c-1.5,0.1-2.9,0.8-3.7,2.1c-2.8,5.1-5.3,10.4-7.4,15.8
			c-1.3,3.5-3.3,4.4-6.6,4.7c-13,1.1-26,0.1-38.6-2.9c-15.8-3.8-30.8-9.7-44-19.5c-0.5-0.4-0.9-0.8-2.5-2.1l22.6,5.3l0.1-0.8
			L281.1,156l0.7-1.2l28.1,10.1c0.1-0.3,0.3-0.5,0.4-0.8l-29-17.4c0.2-0.4,0.4-0.8,0.5-1.1c1.5,0.6,3.1,1.1,4.6,1.7
			c26.8,10.3,53.7,20,82.7,21.7c5.5,0.3,8.5-1,11-6.3c9.8-20.6,20-40.9,30.5-61.2c4.9-9.5,10.5-18.5,15.7-27.8c0.6-1.1,1.2-2.3,2-4
			c-15.8,1-30.8,0-45.4-4l44,0.3l0.5-2c-1.4-1.4-2.9-2.8-4.5-4.1c-14.2-10.5-29-20-45.2-27.2c-0.9-0.5-1.7-1-2.4-1.7l-24.5-8.8
			c-10.4-2-20.8-4.3-31.3-5.8c-5.8-0.8-11.6-1.3-17.4-1.6c-3.1,1.2-6.1,2.6-9,4.3c8.6,10.1,19.6,17.2,30.5,24.3l-0.5,1.2
			c-6.6-3.7-13.4-6.9-19.6-11.1c-5-3.4-9.7-7.4-14.6-11.5c-1.6,1.1-3.2,2.4-4.7,3.7c-0.6,3.6-1.1,7.2-1.9,10.7
			c-6,27.6-12,55.3-18.1,82.9c0,0,0,0.1,0,0.1c0.7,1.5,1.2,3.1,1.5,4.8c0.3,1.9-1,3.7-2.9,4c-0.3,0.1-0.6,0.1-1,0
			c-1,3.3-2.1,6.5-3.2,9.7c-1.1,2.8-3.1,5.2-5.5,6.9c1.6-6.2,2.9-12.5,4.8-18.7c1-3.2-0.3-4.5-3-5.7c-8.7-3.9-16.1-1.1-19.3,7.9
			c-4.9,13.6,0,25.4,7.7,36.5c0.8,1.2,1.7,2.4,2.6,3.6c0.1,0.1,0,0.3-0.1,1.1c-10.8-6.7-15.4-16.6-16.4-28.3
			c-1-11.3,1.6-21.3,13.1-26.8c-1.5-0.7-3.2-1.1-4.9-1.2c-1.7,0.1-3.3,0.4-4.9,0.7c-2.3,0.8-4.3,2.1-6,3.8c-1.3,1.3-2.4,2.6-3.7,4
			l-3.4,9.4c-1.5,16.9,2.5,32.5,14.9,44.2c10.2,9.6,21.8,17.7,33.2,26c5.2,3.8,11.2,6.3,16.9,9.4l22.6,8.1
			c10.6,1.7,21.2,4.4,31.9,4.9c12.4,0.7,24.8,0,37.1-2c13-2.3,23.2-10.3,30.4-21.7c0.4-0.5,0.9-0.9,1.4-1.3l3.4-9.4
			C410.9,182.9,410.1,176.7,404.2,172.6z"/>
		<path class="st3" d="M406.6,173.8c-1-1-1.9-2-3-2.9c-1.1-0.3-2.1-0.6-3.2-0.9c-2.6-0.3-5.3-0.4-7.9-0.1c4.8,3.1,6.9,8.8,5.1,15.2
			c-1.9,7.2-6.7,13.3-13.1,16.9c-6.5,3.7-13.7,6.4-20.6,9.6c11.7,1.5,21.4-3,29.5-11.1s12.8-17.8,6.8-30.4c1.8,1,3,1.6,4,2.3
			c5.9,4.1,6.7,10.3,6.8,16.7l0.5-1.4C411.6,182.7,410.2,177.6,406.6,173.8z"/>
		<path class="st3" d="M426.5,65.9L383,65.6c14.1,3.9,28.7,5,43.9,4.1c0.1-0.7,0.2-1.3,0.3-2C427,67.1,426.8,66.5,426.5,65.9z"/>
		<path class="st3" d="M382,169.8c0.3-0.6,0.8-1,1.4-1.3c-1.8-1-3.2-2.5-3.9-4.4c-2.4,4-5.4,5.1-10.3,4.8
			c-29.1-1.7-56-11.4-82.7-21.7c-1.5-0.6-3.1-1.1-4.6-1.7c-0.2,0.4-0.4,0.8-0.6,1.1l29,17.4c-0.1,0.2-0.3,0.5-0.4,0.8l-28.1-10.1
			l-0.7,1.2l24.5,14.3l-0.1,0.8l-22.6-5.3c1.5,1.3,2,1.7,2.5,2.1c13.2,9.8,28.1,15.8,44,19.5c12.6,3.1,25.7,4.1,38.6,2.9
			c3.3-0.3,5.3-1.2,6.6-4.7C376.7,180.2,379.2,174.9,382,169.8z"/>
		<path class="st3" d="M254.6,120.5c2.6,1.2,3.9,2.5,3,5.7c-1.8,6.1-3.2,12.4-4.8,18.7c2.5-1.7,4.4-4.1,5.5-6.9
			c1.1-3.2,2.2-6.4,3.2-9.7c-1.6,0-2.9-1.2-3.1-2.7c-1.6-9.1-11.6-12.8-21.2-12.1c1.7,0.1,3.3,0.5,4.9,1.2
			c-11.5,5.5-14.1,15.5-13.1,26.8c1,11.7,5.6,21.6,16.4,28.3c0.1-0.8,0.2-1,0.1-1.1c-0.8-1.2-1.7-2.4-2.6-3.6
			c-7.6-11.1-12.6-22.9-7.7-36.5C238.6,119.3,245.9,116.6,254.6,120.5z"/>
		<path class="st3" d="M288.7,22.1c4.9,4.1,9.6,8.1,14.6,11.5c6.2,4.2,13.1,7.4,19.6,11.1l0.7-1.1c-10.9-7.1-21.9-14.2-30.5-24.3
			C291.7,20.1,290.2,21.1,288.7,22.1z"/>
	</g>
</g>
<g id="Layer_2">
	<g>
		<path class="st4" d="M217.1,598.2c-4.1-5-60.3-14.6-38.4-61.1c13.3-28.3,4-79.6-2.1-89c-24-37,0-82.2,0-82.2s-3.7,64.3,27.6,68.5
			c22.5,3,29.3,22,27.9,57.6s20.5,13.7,21.9,42.4c1.4,28.8-5.5,63.9-5.5,63.9H217.1z"/>
		<path class="st5" d="M254.5,598.2c2.7-2.3,9.3-26,5.3-51.7c-3.6-23.2,16.8-19.5,16.8-54.3c0-23.3-38.5-67.3-38.5-67.3
			s12.2,17.3,2.2,66.2c-6.7,32.6-22.6,30.1-21.7,46.7c0.9,16.6,13.2,11.7,25,19.5c11.2,7.5-9.7,40.8-9.7,40.8H254.5z"/>
		<path class="st6" d="M166,445.2c0,0,48.8,57.3,90.3,75.3c62.6,27.1,37.6,77.6,37.6,77.6h-37.6c0,0-49.6-29.1-25.6-35.1
			c48.3-12.2,12-25-16-31.1C186.1,525.8,166,445.2,166,445.2z"/>
		<path class="st6" d="M204.3,337.7c-11.2-5.9,21,10.3,14.2,28.1c-6.8,17.8-8.3,38.4-8.3,38.4s-9.5-12.3-10.9-24.7
			C198,367.2,216.1,343.9,204.3,337.7z"/>
		<path class="st6" d="M118,438.2c0,0-24.8,59.8,9.4,74.9c22.7,10,29.3,56.5,29.3,56.5l16.3-48.8c0,0-34.4-17.7-44-28
			C114.2,476.9,118,438.2,118,438.2z"/>
	</g>
</g>
</svg>
